HIERARCHY
ROOT Hips
{
	OFFSET 0.00 0.00 0.00
	CHANNELS 6 Xposition Yposition Zposition Xrotation Yrotation Zrotation
	JOINT Spine
	{
		OFFSET 0.00000 0.84964 1.27446
		CHANNELS 3 Xrotation Yrotation Zrotation
		JOINT Spine1
		{
			OFFSET 0.00000 0.29508 1.67346
			CHANNELS 3 Xrotation Yrotation Zrotation
			JOINT Spine2
			{
				OFFSET 0.00000 0.14810 1.69281
				CHANNELS 3 Xrotation Yrotation Zrotation
				JOINT Spine3
				{
					OFFSET 0.00000 0.00000 1.69928
					CHANNELS 3 Xrotation Yrotation Zrotation
					JOINT Neck
					{
						OFFSET 0.00000 -0.63723 4.46061
						CHANNELS 3 Xrotation Yrotation Zrotation
						JOINT Head
						{
							OFFSET 0.00000 -0.40573 2.30101
							CHANNELS 3 Xrotation Yrotation Zrotation
							End Site
							{
								OFFSET 0.00000 0.00000 2.75071
							}
						}
					}
					JOINT RightShoulder
					{
						OFFSET -0.72014 -1.20022 3.88874
						CHANNELS 3 Xrotation Yrotation Zrotation
						JOINT RightArm
						{
							OFFSET -3.57668 0.00000 0.00000
							CHANNELS 3 Xrotation Yrotation Zrotation
							JOINT RightForeArm
							{
								OFFSET -5.92485 0.00000 0.00000
								CHANNELS 3 Xrotation Yrotation Zrotation
								JOINT RightHand
								{
									OFFSET -6.63013 0.00000 0.00000
									CHANNELS 3 Xrotation Yrotation Zrotation
									JOINT RightHandEnd
									{
										OFFSET -1.65321 0.00000 0.00000
										CHANNELS 3 Xrotation Yrotation Zrotation
										End Site
										{
											OFFSET -1.65321 0.00000 0.00000
										}
									}
									JOINT RightHandThumb1
									{
										OFFSET -0.66129 -1.10214 -0.44086
										CHANNELS 3 Yrotation Xrotation Zrotation
										End Site
										{
											OFFSET -1.59688 -0.42788 0.00000
										}
									}
								}
							}
						}
					}
					JOINT LeftShoulder
					{
						OFFSET 0.72014 -1.20022 3.88874
						CHANNELS 3 Xrotation Yrotation Zrotation
						JOINT LeftArm
						{
							OFFSET 3.57668 0.00000 0.00000
							CHANNELS 3 Xrotation Yrotation Zrotation
							JOINT LeftForeArm
							{
								OFFSET 5.92485 0.00000 0.00000
								CHANNELS 3 Xrotation Yrotation Zrotation
								JOINT LeftHand
								{
									OFFSET 6.63013 0.00000 0.00000
									CHANNELS 3 Xrotation Yrotation Zrotation
									JOINT LeftHandEnd
									{
										OFFSET 1.65321 0.00000 0.00000
										CHANNELS 3 Xrotation Yrotation Zrotation
										End Site
										{
											OFFSET 1.65321 0.00000 0.00000
										}
									}
									JOINT LeftHandThumb1
									{
										OFFSET 0.66129 -1.10214 -0.44086
										CHANNELS 3 Yrotation Xrotation Zrotation
										End Site
										{
											OFFSET 1.59688 -0.42788 0.00000
										}
									}
								}
							}
						}
					}
				}
			}
		}
	}
	JOINT RightUpLeg
	{
		OFFSET -2.13640 0.00000 -0.62412
		CHANNELS 3 Xrotation Yrotation Zrotation
		JOINT RightLeg
		{
			OFFSET 0.00000 0.00000 -11.49360
			CHANNELS 3 Xrotation Yrotation Zrotation
			JOINT RightFoot
			{
				OFFSET 0.00000 0.00000 -8.79036
				CHANNELS 3 Xrotation Yrotation Zrotation
				JOINT RightToeBase
				{
					OFFSET 0.00000 -3.94625 -1.43632
					CHANNELS 3 Xrotation Yrotation Zrotation
					End Site
					{
						OFFSET 0.00000 -1.72833 -0.00000
					}
				}
			}
		}
	}
	JOINT LeftUpLeg
	{
		OFFSET 2.13640 0.00000 -0.62412
		CHANNELS 3 Xrotation Yrotation Zrotation
		JOINT LeftLeg
		{
			OFFSET 0.00000 0.00000 -11.49360
			CHANNELS 3 Xrotation Yrotation Zrotation
			JOINT LeftFoot
			{
				OFFSET 0.00000 0.00000 -8.79036
				CHANNELS 3 Xrotation Yrotation Zrotation
				JOINT LeftToeBase
				{
					OFFSET 0.00000 -3.94625 -1.43632
					CHANNELS 3 Xrotation Yrotation Zrotation
					End Site
					{
						OFFSET 0.00000 -1.72833 -0.00000
					}
				}
			}
		}
	}
}
MOTION
Frames: 16
Frame Time: 0.008342
 4.2535 5.3797 22.9302 -8.6574 -3.6541 178.4185 0.9152 -5.8576 0.6824 0.1380 -2.0244 -0.7561 -10.9539 0.5046 -0.5763 -0.6784 10.2035 -3.9309 6.1371 2.1249 -2.3257 3.4865 -6.4203 -7.0487 -7.1286 1.7096 4.9772 1.7090 6.8181 -16.3100 0.0000 0.0000 20.3263 1.4272 -18.3740 -20.5296 -0.0000 -0.0000 0.0000 -0.0000 -0.0000 0.0000 -16.2265 -12.0795 -2.9438 -15.5837 7.5784 3.9714 -0.0000 -0.0000 -5.1496 -6.3826 -19.4171 15.5413 -0.0000 -0.0000 0.0000 0.0000 -0.0000 0.0000 -11.8932 9.6524 -53.3399 -4.9499 0.0000 -0.0000 18.1495 -10.2583 63.9687 0.9004 0.0000 0.0000 -2.7379 -17.2299 33.8318 -10.8962 0.0000 -0.0000 10.9789 13.2572 -26.5307 -22.8083 0.0000 -0.0000
 4.2580 5.3807 22.9298 -8.6488 -3.6939 178.4024 0.8982 -5.8296 0.6893 0.1336 -2.0185 -0.7557 -10.9260 0.5047 -0.6176 -0.6724 10.1781 -3.9209 6.1307 2.1303 -2.3665 3.4719 -6.4532 -7.1409 -7.1367 1.6657 4.9374 1.6876 6.8255 -16.3012 0.0000 0.0000 20.3180 1.4018 -18.4352 -20.0452 0.0000 -0.0000 0.0000 -0.0000 -0.0000 -0.0000 -16.2132 -12.1186 -2.9450 -15.4605 7.5795 3.9406 -0.0000 -0.0000 -5.1581 -6.3934 -19.3775 15.5364 0.0000 -0.0000 0.0000 0.0000 0.0000 0.0000 -11.8852 9.6013 -53.3316 -4.9361 0.0000 -0.0000 18.1281 -10.2551 63.9684 0.8981 0.0000 0.0000 -2.7147 -17.2827 33.8374 -10.9070 0.0000 -0.0000 10.9866 13.2780 -26.5162 -22.8016 0.0000 -0.0000
 4.2644 5.3824 22.9294 -8.6293 -3.7534 178.3815 0.8827 -5.7930 0.6985 0.1262 -2.0103 -0.7537 -10.8864 0.4966 -0.6694 -0.6619 10.1431 -3.9124 6.1241 2.1440 -2.4264 3.4503 -6.4955 -7.2830 -7.1546 1.6219 4.8918 1.6666 6.8145 -16.2929 0.0000 0.0000 20.3070 1.3789 -18.4769 -19.5402 0.0000 0.0000 0.0000 -0.0000 -0.0000 0.0000 -16.1937 -12.1808 -2.9474 -15.2700 7.5937 3.9061 -0.0000 -0.0000 -5.1742 -6.4075 -19.3256 15.5323 0.0000 0.0000 -0.0000 0.0000 0.0000 0.0000 -11.8643 9.5249 -53.3244 -4.9191 0.0000 -0.0000 18.0962 -10.2479 63.9702 0.8926 0.0000 0.0000 -2.6721 -17.3599 33.8419 -10.9256 0.0000 -0.0000 10.9967 13.3039 -26.4932 -22.7951 0.0000 -0.0000
 4.2724 5.3848 22.9288 -8.5974 -3.8263 178.3590 0.8693 -5.7482 0.7060 0.1193 -2.0003 -0.7516 -10.8367 0.4901 -0.7298 -0.6474 10.0970 -3.8989 6.1174 2.1636 -2.5112 3.4209 -6.5443 -7.4824 -7.1868 1.5841 4.8305 1.6517 6.7744 -16.2725 0.0000 0.0000 20.2853 1.3649 -18.4933 -19.0374 -0.0000 -0.0000 0.0000 0.0000 -0.0000 0.0000 -16.1672 -12.2572 -2.9431 -15.0058 7.6112 3.8451 -0.0000 -0.0000 -5.1900 -6.4261 -19.2589 15.5348 -0.0000 -0.0000 0.0000 -0.0000 -0.0000 0.0000 -11.8293 9.4318 -53.3300 -4.8982 0.0000 -0.0000 18.0557 -10.2356 63.9843 0.8830 0.0000 0.0000 -2.6116 -17.4529 33.8560 -10.9494 0.0000 -0.0000 11.0105 13.3296 -26.4760 -22.7906 0.0000 -0.0000
 4.2818 5.3876 22.9282 -8.5700 -3.9127 178.3295 0.8392 -5.6977 0.7187 0.1123 -1.9839 -0.7523 -10.7750 0.4727 -0.7940 -0.6282 10.0503 -3.8853 6.1137 2.1872 -2.6220 3.3841 -6.5972 -7.7456 -7.2261 1.5399 4.7642 1.6454 6.7198 -16.2548 0.0000 0.0000 20.2553 1.3544 -18.4960 -18.5537 0.0000 0.0000 -0.0000 -0.0000 -0.0000 0.0000 -16.1365 -12.3482 -2.9414 -14.6686 7.6272 3.7708 -0.0000 -0.0000 -5.2093 -6.4498 -19.1794 15.5393 -0.0000 -0.0000 0.0000 0.0000 -0.0000 0.0000 -11.8009 9.3243 -53.3063 -4.8638 0.0000 -0.0000 17.9947 -10.2261 63.9735 0.8692 0.0000 0.0000 -2.5494 -17.5631 33.8810 -10.9780 0.0000 -0.0000 11.0269 13.3544 -26.4618 -22.7892 0.0000 -0.0000
 4.2927 5.3913 22.9275 -8.5108 -4.0158 178.3004 0.8365 -5.6410 0.7328 0.1025 -1.9694 -0.7501 -10.7061 0.4534 -0.8675 -0.6061 9.9985 -3.8697 6.1148 2.2140 -2.7593 3.3408 -6.6491 -8.0769 -7.2749 1.4982 4.6917 1.6560 6.6426 -16.2297 0.0000 0.0000 20.2060 1.3491 -18.4896 -18.0929 -0.0000 -0.0000 0.0000 -0.0000 0.0000 -0.0000 -16.1031 -12.4600 -2.9456 -14.2644 7.6480 3.6914 -0.0000 -0.0000 -5.2342 -6.4767 -19.0913 15.5454 0.0000 -0.0000 -0.0000 0.0000 -0.0000 0.0000 -11.7373 9.1978 -53.2923 -4.8249 0.0000 -0.0000 17.9236 -10.2134 63.9708 0.8519 0.0000 0.0000 -2.4464 -17.6913 33.9076 -11.0160 0.0000 -0.0000 11.0460 13.3799 -26.4448 -22.7908 0.0000 -0.0000
 4.3047 5.3951 22.9267 -8.4750 -4.1278 178.2708 0.7982 -5.5785 0.7473 0.0921 -1.9567 -0.7473 -10.6250 0.4396 -0.9471 -0.5785 9.9371 -3.8524 6.1191 2.2480 -2.9241 3.2928 -6.7008 -8.4783 -7.3333 1.4594 4.6192 1.6806 6.5440 -16.2097 0.0000 0.0000 20.1471 1.3535 -18.4742 -17.6581 0.0000 -0.0000 -0.0000 0.0000 -0.0000 -0.0000 -16.0695 -12.5700 -2.9406 -13.7993 7.6538 3.5794 -0.0000 -0.0000 -5.2537 -6.5088 -18.9950 15.5515 0.0000 0.0000 -0.0000 0.0000 0.0000 -0.0000 -11.6997 9.0616 -53.3026 -4.7762 0.0000 -0.0000 17.8448 -10.1912 63.9892 0.8311 0.0000 0.0000 -2.3682 -17.8316 33.9469 -11.0533 0.0000 -0.0000 11.0686 13.4014 -26.4422 -22.7964 0.0000 -0.0000
 4.3175 5.4000 22.9261 -8.3955 -4.2530 178.2461 0.8018 -5.5170 0.7633 0.0811 -1.9408 -0.7443 -10.5402 0.4172 -1.0264 -0.5497 9.8820 -3.8374 6.1316 2.2798 -3.1157 3.2416 -6.7427 -8.9502 -7.3954 1.4181 4.5462 1.7262 6.4334 -16.1867 0.0000 0.0000 20.0644 1.3634 -18.4730 -17.2158 0.0000 0.0000 -0.0000 -0.0000 -0.0000 -0.0000 -16.0382 -12.6967 -2.9463 -13.2897 7.6574 3.4656 -0.0000 -0.0000 -5.2743 -6.5447 -18.8976 15.5526 0.0000 0.0000 -0.0000 -0.0000 0.0000 -0.0000 -11.6147 8.9152 -53.2937 -4.7180 0.0000 -0.0000 17.7498 -10.1761 63.9849 0.8090 0.0000 0.0000 -2.2391 -17.9846 33.9856 -11.0978 0.0000 -0.0000 11.0929 13.4244 -26.4386 -22.8035 0.0000 -0.0000
 4.3310 5.4046 22.9254 -8.3414 -4.3836 178.2255 0.7764 -5.4559 0.7826 0.0703 -1.9260 -0.7455 -10.4546 0.4003 -1.1056 -0.5160 9.8238 -3.8239 6.1511 2.3149 -3.3321 3.1896 -6.7773 -9.4906 -7.4639 1.3849 4.4798 1.7830 6.2993 -16.1748 0.0000 0.0000 19.9760 1.3912 -18.4740 -16.7571 0.0000 0.0000 0.0000 -0.0000 -0.0000 0.0000 -16.0101 -12.8207 -2.9429 -12.7476 7.6450 3.3223 -0.0000 -0.0000 -5.2860 -6.5872 -18.8011 15.5466 -0.0000 -0.0000 0.0000 -0.0000 -0.0000 -0.0000 -11.5575 8.7645 -53.3110 -4.6512 0.0000 -0.0000 17.6518 -10.1532 63.9999 0.7859 0.0000 0.0000 -2.1410 -18.1455 34.0309 -11.1388 0.0000 -0.0000 11.1204 13.4455 -26.4488 -22.8122 0.0000 -0.0000
 4.3448 5.4096 22.9248 -8.2684 -4.5187 178.2150 0.7689 -5.3963 0.7959 0.0612 -1.9092 -0.7428 -10.3691 0.3802 -1.1839 -0.4811 9.7696 -3.8116 6.1786 2.3500 -3.5740 3.1395 -6.7990 -10.0942 -7.5334 1.3528 4.4121 1.8537 6.1584 -16.1557 0.0000 0.0000 19.8615 1.4292 -18.5005 -16.2253 0.0000 0.0000 -0.0000 0.0000 -0.0000 -0.0000 -15.9913 -12.9510 -2.9489 -12.1898 7.6256 3.1790 -0.0000 -0.0000 -5.2973 -6.6347 -18.7136 15.5295 0.0000 0.0000 0.0000 -0.0000 -0.0000 0.0000 -11.4803 8.6155 -53.3279 -4.5727 0.0000 -0.0000 17.5432 -10.1345 64.0058 0.7636 0.0000 0.0000 -2.0267 -18.3103 34.0752 -11.1783 0.0000 -0.0000 11.1493 13.4680 -26.4671 -22.8191 0.0000 -0.0000
 4.3585 5.4148 22.9244 -8.1885 -4.6576 178.2158 0.7690 -5.3355 0.8124 0.0545 -1.9003 -0.7406 -10.2878 0.3623 -1.2681 -0.4464 9.7209 -3.7984 6.2169 2.3876 -3.8365 3.0937 -6.8098 -10.7583 -7.6012 1.3203 4.3523 1.9319 6.0163 -16.1441 0.0000 0.0000 19.7330 1.4812 -18.5586 -15.5896 -0.0000 -0.0000 0.0000 -0.0000 0.0000 0.0000 -15.9799 -13.0776 -2.9620 -11.6305 7.5887 3.0335 -0.0000 -0.0000 -5.3073 -6.6885 -18.6328 15.5033 0.0000 -0.0000 0.0000 0.0000 0.0000 0.0000 -11.3951 8.4669 -53.3707 -4.4875 0.0000 -0.0000 17.4334 -10.1131 64.0266 0.7430 0.0000 0.0000 -1.9106 -18.4785 34.1206 -11.2156 0.0000 -0.0000 11.1821 13.4937 -26.4984 -22.8223 0.0000 -0.0000
 4.3721 5.4198 22.9241 -8.1181 -4.7945 178.2298 0.7607 -5.2766 0.8239 0.0536 -1.8912 -0.7380 -10.2151 0.3455 -1.3517 -0.4097 9.6739 -3.7844 6.2635 2.4308 -4.1218 3.0527 -6.8098 -11.4734 -7.6764 1.3047 4.2838 2.0094 5.8560 -16.1194 0.0000 0.0000 19.5929 1.5547 -18.6298 -14.8334 0.0000 0.0000 -0.0000 -0.0000 -0.0000 -0.0000 -15.9744 -13.1968 -2.9724 -11.0871 7.5394 2.8723 -0.0000 -0.0000 -5.3072 -6.7500 -18.5607 15.4588 0.0000 0.0000 -0.0000 0.0000 -0.0000 0.0000 -11.3203 8.3268 -53.4331 -4.3927 0.0000 -0.0000 17.3213 -10.0915 64.0539 0.7255 0.0000 0.0000 -1.8156 -18.6454 34.1621 -11.2438 0.0000 -0.0000 11.2165 13.5229 -26.5428 -22.8197 0.0000 -0.0000
 4.3853 5.4248 22.9239 -8.0370 -4.9310 178.2545 0.7697 -5.2274 0.8391 0.0472 -1.8786 -0.7389 -10.1429 0.3309 -1.4286 -0.3743 9.6365 -3.7814 6.3211 2.4736 -4.4196 3.0194 -6.7996 -12.2336 -7.7377 1.2685 4.2276 2.0799 5.7240 -16.1041 0.0000 0.0000 19.4410 1.6379 -18.7446 -13.9171 -0.0000 -0.0000 0.0000 -0.0000 -0.0000 0.0000 -15.9740 -13.3211 -2.9777 -10.5636 7.4850 2.6991 -0.0000 -0.0000 -5.2980 -6.8247 -18.5027 15.3973 0.0000 -0.0000 -0.0000 0.0000 -0.0000 -0.0000 -11.2332 8.1919 -53.4931 -4.2937 0.0000 -0.0000 17.2082 -10.0755 64.0702 0.7113 0.0000 0.0000 -1.7165 -18.8121 34.1977 -11.2651 0.0000 -0.0000 11.2505 13.5587 -26.5925 -22.8101 0.0000 -0.0000
 4.3981 5.4295 22.9239 -7.9642 -5.0634 178.2938 0.7733 -5.1766 0.8499 0.0462 -1.8669 -0.7391 -10.0797 0.3160 -1.5083 -0.3399 9.5982 -3.7816 6.3874 2.5228 -4.7302 2.9945 -6.7771 -13.0312 -7.7972 1.2343 4.1678 2.1405 5.6017 -16.0757 0.0000 0.0000 19.2755 1.7390 -18.8790 -12.8426 0.0000 -0.0000 -0.0000 0.0000 -0.0000 0.0000 -15.9748 -13.4423 -2.9805 -10.0722 7.4280 2.5274 -0.0000 -0.0000 -5.2924 -6.9065 -18.4579 15.3261 0.0000 -0.0000 0.0000 -0.0000 -0.0000 0.0000 -11.1544 8.0670 -53.5750 -4.1890 0.0000 -0.0000 17.0961 -10.0597 64.0941 0.7008 0.0000 0.0000 -1.6392 -18.9754 34.2272 -11.2756 0.0000 -0.0000 11.2858 13.5988 -26.6552 -22.7936 0.0000 -0.0000
 4.4103 5.4343 22.9240 -7.8834 -5.1915 178.3451 0.7897 -5.1290 0.8612 0.0464 -1.8563 -0.7395 -10.0248 0.3016 -1.5912 -0.3051 9.5664 -3.7798 6.4626 2.5795 -5.0541 2.9782 -6.7495 -13.8584 -7.8599 1.2124 4.0984 2.1876 5.4726 -16.0327 0.0000 0.0000 19.1039 1.8604 -19.0037 -11.6370 0.0000 0.0000 -0.0000 -0.0000 -0.0000 -0.0000 -15.9773 -13.5596 -2.9812 -9.6110 7.3665 2.3459 -0.0000 -0.0000 -5.2810 -7.0017 -18.4191 15.2400 -0.0000 -0.0000 -0.0000 -0.0000 -0.0000 0.0000 -11.0656 7.9510 -53.6659 -4.0828 0.0000 -0.0000 16.9867 -10.0477 64.1176 0.6936 0.0000 0.0000 -1.5627 -19.1338 34.2534 -11.2776 0.0000 -0.0000 11.3206 13.6433 -26.7283 -22.7711 0.0000 -0.0000
 4.4219 5.4390 22.9242 -7.8011 -5.3146 178.4114 0.8084 -5.0784 0.8688 0.0527 -1.8476 -0.7409 -9.9780 0.2889 -1.6816 -0.2737 9.5292 -3.7729 6.5489 2.6481 -5.3866 2.9693 -6.7158 -14.7100 -7.9152 1.1877 4.0188 2.2186 5.3667 -15.9724 0.0000 0.0000 18.9253 1.9859 -19.1337 -10.3377 0.0000 0.0000 -0.0000 -0.0000 -0.0000 0.0000 -15.9775 -13.6682 -2.9814 -9.1799 7.3030 2.1626 -0.0000 -0.0000 -5.2695 -7.1072 -18.3848 15.1415 0.0000 -0.0000 -0.0000 0.0000 0.0000 0.0000 -10.9712 7.8419 -53.7807 -3.9830 0.0000 -0.0000 16.8856 -10.0365 64.1516 0.6894 0.0000 0.0000 -1.4965 -19.2880 34.2669 -11.2686 0.0000 -0.0000 11.3526 13.6902 -26.8064 -22.7453 0.0000 -0.0000
